<?xml version="1.0" encoding="utf-8"?>
<!-- Generator: Adobe Illustrator 26.0.1, SVG Export Plug-In . SVG Version: 6.00 Build 0)  -->
<svg version="1.1" xmlns="http://www.w3.org/2000/svg" xmlns:xlink="http://www.w3.org/1999/xlink" x="0px" y="0px"
	 viewBox="0 0 321.6 321.6" style="enable-background:new 0 0 321.6 321.6;" xml:space="preserve">
<g id="Layer_1">
	<path d="M213.4,160.8l103-103c4.7-4.7,4.7-12.3,0-17L280.2,4.6c-4.7-4.7-12.3-4.7-17,0l-103,103l-103-103c-4.7-4.7-12.3-4.7-17,0
		L4,40.8c-4.7,4.7-4.7,12.3,0,17l103,103L4,263.8c-4.7,4.7-4.7,12.3,0,17L40.2,317c4.7,4.7,12.3,4.7,17,0l103-103l103,103
		c4.7,4.7,12.3,4.7,17,0l36.2-36.2c4.7-4.7,4.7-12.3,0-17L213.4,160.8z"/>
</g>
<g id="Layer_2">
</g>
</svg>
