<?xml version="1.0" encoding="utf-8"?>
<!-- Generator: Adobe Illustrator 26.0.1, SVG Export Plug-In . SVG Version: 6.00 Build 0)  -->
<svg version="1.1" xmlns="http://www.w3.org/2000/svg" xmlns:xlink="http://www.w3.org/1999/xlink" x="0px" y="0px"
	 viewBox="0 0 321.6 252.6" style="enable-background:new 0 0 321.6 252.6;" xml:space="preserve">
<g id="Layer_1">
	<g>
		<path d="M179.2,155.8L321.6,54.7v-22c0-0.4,0-0.7,0-1.1c0-2.2,0-4.3,0-6.5c-1.6-7.5-4.8-13.9-10.9-18.8c-4.5-3.6-9.5-5.7-15.1-6.2
			C293.8,0,292,0,290.2,0c-86.3,0-172.7,0-259,0c-3.6,0-7.4,0.2-10.9,1.1C9.6,3.8,4.3,11.7,1.5,21.7c-1,3.4-1.4,6.7-1.4,9.9h0v23.1
			l142.4,101.1C152.6,165.9,169.1,165.9,179.2,155.8z"/>
		<path d="M142.4,180.8L0,79.7v109.6h0c0,10.8,0,21.7,0,32.5c0,18.6,12,30.7,30.6,30.7c86.9,0,173.7,0,260.6,0
			c12.6,0,21.9-5.5,27.6-16.6c1.4-2.6,1.9-5.7,2.8-8.6c0-12.7,0-25.4,0-38c0-35.9,0-71.8,0-107.7v-2L179.2,180.8
			C169.1,190.9,152.6,190.9,142.4,180.8z"/>
	</g>
</g>
<g id="Layer_2">
</g>
</svg>
