<?xml version="1.0" encoding="utf-8"?>
<!-- Generator: Adobe Illustrator 26.0.1, SVG Export Plug-In . SVG Version: 6.00 Build 0)  -->
<svg version="1.1" xmlns="http://www.w3.org/2000/svg" xmlns:xlink="http://www.w3.org/1999/xlink" x="0px" y="0px"
	 viewBox="0 0 321.6 321.6" style="enable-background:new 0 0 321.6 321.6;" xml:space="preserve">
<g id="Layer_1">
	<path d="M321.6,241.8v38c0,6.6-5.4,12-12,12H12c-6.6,0-12-5.4-12-12v-38c0-6.6,5.4-12,12-12h297.6
		C316.2,229.8,321.6,235.2,321.6,241.8z"/>
	<path d="M321.6,143.1v38c0,6.6-5.4,12-12,12H12c-6.6,0-12-5.4-12-12v-38c0-6.6,5.4-12,12-12h297.6
		C316.2,131.1,321.6,136.5,321.6,143.1z"/>
	<path d="M321.6,44.5v38c0,6.6-5.4,12-12,12H12c-6.6,0-12-5.4-12-12v-38c0-6.6,5.4-12,12-12h297.6C316.2,32.5,321.6,37.9,321.6,44.5
		z"/>
</g>
<g id="Layer_2">
</g>
</svg>
