<?xml version="1.0" encoding="utf-8"?>
<!-- Generator: Adobe Illustrator 26.0.1, SVG Export Plug-In . SVG Version: 6.00 Build 0)  -->
<svg version="1.1" id="Layer_1" xmlns="http://www.w3.org/2000/svg" xmlns:xlink="http://www.w3.org/1999/xlink" x="0px" y="0px"
	 viewBox="0 0 321.6 321.6" style="enable-background:new 0 0 321.6 321.6;" xml:space="preserve">
<g>
	<path d="M70.7,0.4c3.1,2,5.8,4.1,7.5,7c7.6,13,14.7,26.2,22.1,39.3c3.2,5.6,6.8,11,10.2,16.5c0.9,1.5,2,2.9,2.9,4.5
		c4.8,8.2,4.7,12.5-1.8,19.4c-5.5,5.7-11.7,10.7-17.6,16c-4,3.5-8.2,6.8-12,10.5c-7.5,7.2-8.2,11.1-3.2,20.2
		c17.7,32.4,39,61.8,69.2,83.8c13.4,9.8,27.5,18.5,42.3,26.1c5.9,3.1,11.2,2,15.5-2.8c6-6.7,11.7-13.6,17.7-20.3
		c3.2-3.6,6.3-7.3,9.9-10.5c7.9-7.2,12.1-7.2,21.3-1.8c16,9.6,32.2,18.9,48.3,28.3c4.8,2.8,9.5,5.6,14.2,8.6c3,1.9,4.1,4.9,3.9,8.3
		c-0.7,11.1-2.8,22-7.5,32.1c-2,4.3-5.4,8.3-9.1,11.3c-14.2,11.7-30.2,20.1-48.6,23.1c-12.2,2-24.2,1.1-35.9-2.4
		c-20.7-6.2-41-13.4-60.5-22.9s-36.7-22.4-52.9-36.6c-26.7-23.3-50.8-48.9-70.2-78.8C27.6,165.7,21,151.1,15.5,136
		c-5.1-14-10.9-27.8-13.8-42.5c-0.7-3-1.2-5.9-1.7-8.9c0-4.6,0-9.2,0-13.8c0.3-1.7,0.6-3.4,0.9-5.2C3.2,50.5,9.8,37.2,18,24.4
		C25.2,13.1,35.2,7,48.4,3.1c4.7-1.4,9.7-2,14.9-2.8C65.9,0,67.9,0,70.7,0.4z"/>
</g>
</svg>
